<svg width="25" height="24" viewBox="0 0 25 24" fill="none" xmlns="http://www.w3.org/2000/svg">
<g id="call">
<mask id="mask0_50_1006" style="mask-type:alpha" maskUnits="userSpaceOnUse" x="0" y="0" width="25" height="24">
<rect id="Bounding box" x="0.333374" width="24" height="24" fill="#D9D9D9"/>
</mask>
<g mask="url(#mask0_50_1006)">
<path id="call_2" d="M20.2834 21C18.2 21 16.1417 20.5458 14.1084 19.6375C12.075 18.7292 10.225 17.4417 8.55837 15.775C6.89171 14.1083 5.60421 12.2583 4.69587 10.225C3.78754 8.19167 3.33337 6.13333 3.33337 4.05C3.33337 3.75 3.43337 3.5 3.63337 3.3C3.83337 3.1 4.08337 3 4.38337 3H8.43337C8.66671 3 8.87504 3.07917 9.05837 3.2375C9.24171 3.39583 9.35004 3.58333 9.38337 3.8L10.0334 7.3C10.0667 7.56667 10.0584 7.79167 10.0084 7.975C9.95837 8.15833 9.86671 8.31667 9.73337 8.45L7.30837 10.9C7.64171 11.5167 8.03754 12.1125 8.49587 12.6875C8.95421 13.2625 9.45837 13.8167 10.0084 14.35C10.525 14.8667 11.0667 15.3458 11.6334 15.7875C12.2 16.2292 12.8 16.6333 13.4334 17L15.7834 14.65C15.9334 14.5 16.1292 14.3875 16.3709 14.3125C16.6125 14.2375 16.85 14.2167 17.0834 14.25L20.5334 14.95C20.7667 15.0167 20.9584 15.1375 21.1084 15.3125C21.2584 15.4875 21.3334 15.6833 21.3334 15.9V19.95C21.3334 20.25 21.2334 20.5 21.0334 20.7C20.8334 20.9 20.5834 21 20.2834 21ZM6.35837 9L8.00837 7.35L7.58337 5H5.35837C5.44171 5.68333 5.55837 6.35833 5.70837 7.025C5.85837 7.69167 6.07504 8.35 6.35837 9ZM15.3084 17.95C15.9584 18.2333 16.6209 18.4583 17.2959 18.625C17.9709 18.7917 18.65 18.9 19.3334 18.95V16.75L16.9834 16.275L15.3084 17.95Z" fill="white"/>
</g>
</g>
</svg>
