<svg width="25" height="24" viewBox="0 0 25 24" fill="none" xmlns="http://www.w3.org/2000/svg">
<g id="location_on">
<mask id="mask0_50_1024" style="mask-type:alpha" maskUnits="userSpaceOnUse" x="0" y="0" width="25" height="24">
<rect id="Bounding box" x="0.666748" width="24" height="24" fill="#D9D9D9"/>
</mask>
<g mask="url(#mask0_50_1024)">
<path id="location_on_2" d="M12.6667 12C13.2167 12 13.6876 11.8042 14.0792 11.4125C14.4709 11.0208 14.6667 10.55 14.6667 10C14.6667 9.45 14.4709 8.97917 14.0792 8.5875C13.6876 8.19583 13.2167 8 12.6667 8C12.1167 8 11.6459 8.19583 11.2542 8.5875C10.8626 8.97917 10.6667 9.45 10.6667 10C10.6667 10.55 10.8626 11.0208 11.2542 11.4125C11.6459 11.8042 12.1167 12 12.6667 12ZM12.6667 19.35C14.7001 17.4833 16.2084 15.7875 17.1917 14.2625C18.1751 12.7375 18.6667 11.3833 18.6667 10.2C18.6667 8.38333 18.0876 6.89583 16.9292 5.7375C15.7709 4.57917 14.3501 4 12.6667 4C10.9834 4 9.56258 4.57917 8.40425 5.7375C7.24591 6.89583 6.66675 8.38333 6.66675 10.2C6.66675 11.3833 7.15841 12.7375 8.14175 14.2625C9.12508 15.7875 10.6334 17.4833 12.6667 19.35ZM12.6667 22C9.98341 19.7167 7.97925 17.5958 6.65425 15.6375C5.32925 13.6792 4.66675 11.8667 4.66675 10.2C4.66675 7.7 5.47091 5.70833 7.07925 4.225C8.68758 2.74167 10.5501 2 12.6667 2C14.7834 2 16.6459 2.74167 18.2542 4.225C19.8626 5.70833 20.6667 7.7 20.6667 10.2C20.6667 11.8667 20.0042 13.6792 18.6792 15.6375C17.3542 17.5958 15.3501 19.7167 12.6667 22Z" fill="white"/>
</g>
</g>
</svg>
