<svg width="20" height="14" viewBox="0 0 20 14" fill="none" xmlns="http://www.w3.org/2000/svg">
<path d="M0 14V0H20V14H0ZM3 9H6C6.28333 9 6.52083 8.90417 6.7125 8.7125C6.90417 8.52083 7 8.28333 7 8V6.25C7 5.96667 6.90417 5.72917 6.7125 5.5375C6.52083 5.34583 6.28333 5.25 6 5.25H4.5V4.5H7V3H3V6.75H5.5V7.5H3V9ZM9 11H17V10.45C17 9.7 16.6333 9.10417 15.9 8.6625C15.1667 8.22083 14.2 8 13 8C11.8 8 10.8333 8.22083 10.1 8.6625C9.36667 9.10417 9 9.7 9 10.45V11ZM13 7C13.55 7 14.0208 6.80417 14.4125 6.4125C14.8042 6.02083 15 5.55 15 5C15 4.45 14.8042 3.97917 14.4125 3.5875C14.0208 3.19583 13.55 3 13 3C12.45 3 11.9792 3.19583 11.5875 3.5875C11.1958 3.97917 11 4.45 11 5C11 5.55 11.1958 6.02083 11.5875 6.4125C11.9792 6.80417 12.45 7 13 7ZM2 12H18V2H2V12Z" fill="#444444"/>
</svg>
